<svg width="24" height="25" viewBox="0 0 24 25" fill="none" xmlns="http://www.w3.org/2000/svg">
<path fill-rule="evenodd" clip-rule="evenodd" d="M12 21.5C16.9706 21.5 21 17.4706 21 12.5C21 7.52944 16.9706 3.5 12 3.5C7.02944 3.5 3 7.52944 3 12.5C3 17.4706 7.02944 21.5 12 21.5ZM13.0078 9.37818C13.0078 9.65432 12.784 9.87818 12.5078 9.87818H11.4924C11.2163 9.87818 10.9924 9.65432 10.9924 9.37818V8.68726C10.9924 8.41111 11.2163 8.18726 11.4924 8.18726L12.5078 8.18725C12.784 8.18725 13.0078 8.41111 13.0078 8.68725V9.37818ZM12.9598 16.3128C12.9598 16.589 12.7359 16.8128 12.4598 16.8128H11.5288C11.2527 16.8128 11.0288 16.589 11.0288 16.3128L11.0288 11.9367C11.0288 11.6606 11.2527 11.4367 11.5288 11.4367H12.4598C12.7359 11.4367 12.9598 11.6606 12.9598 11.9367L12.9598 16.3128Z" fill="#F51B1B"/>
</svg>
